<?xml version="1.0" standalone="no"?>
<!DOCTYPE svg PUBLIC "-//W3C//DTD SVG 20010904//EN"
 "http://www.w3.org/TR/2001/REC-SVG-20010904/DTD/svg10.dtd">
<svg version="1.0" xmlns="http://www.w3.org/2000/svg"
 width="132.000000pt" height="106.000000pt" viewBox="0 0 132.000000 106.000000"
 preserveAspectRatio="xMidYMid meet">

<g transform="translate(0.000000,106.000000) scale(0.100000,-0.100000)"
fill="#000000" stroke="none">
<path d="M0 530 l0 -530 660 0 660 0 0 530 0 530 -660 0 -660 0 0 -530z m1219
492 c126 -67 67 -276 -72 -258 -133 16 -170 179 -58 253 41 28 85 29 130 5z
m-300 -63 c32 -11 61 -52 61 -88 0 -11 -12 -33 -26 -50 -20 -25 -34 -31 -64
-31 -30 0 -44 6 -64 31 -49 58 -26 115 60 149 1 0 15 -5 33 -11z m-500 -225
c24 -5 31 -12 31 -30 0 -13 -4 -24 -10 -24 -5 0 -10 7 -10 15 0 22 -38 39 -56
24 -22 -18 -17 -28 26 -45 48 -19 65 -45 50 -73 -13 -25 -37 -32 -89 -29 -38
3 -41 5 -41 33 l0 30 25 -28 c28 -29 44 -34 63 -15 20 20 14 28 -32 47 -51 22
-64 53 -35 82 21 21 30 22 78 13z m175 -68 c26 -70 46 -93 67 -80 12 7 12 134
-1 134 -5 0 -10 5 -10 10 0 6 30 10 70 10 70 0 70 0 70 -27 -1 -24 -2 -25 -11
-10 -6 10 -22 17 -39 17 -27 0 -30 -3 -30 -30 0 -34 14 -38 42 -13 17 15 18
14 18 -23 -1 -35 -2 -37 -14 -21 -22 28 -46 22 -46 -13 0 -16 5 -30 10 -30 6
0 10 -4 10 -10 0 -6 -35 -10 -86 -10 -72 0 -85 2 -75 14 18 21 2 46 -29 46
-31 0 -47 -25 -29 -46 9 -11 5 -14 -21 -14 -31 0 -32 1 -17 18 8 9 27 47 42
85 15 37 32 67 39 67 6 0 24 -33 40 -74z m355 44 c3 -24 2 -24 -16 -7 -11 9
-29 17 -41 17 -18 0 -22 -6 -22 -30 0 -34 23 -41 39 -12 8 13 10 9 10 -23 0
-32 -2 -36 -10 -22 -18 30 -41 21 -37 -15 3 -28 6 -33 27 -30 14 1 33 10 43
19 17 15 18 15 18 -10 l0 -27 -82 0 c-61 1 -78 3 -65 11 13 8 17 24 17 74 0
37 -4 65 -10 65 -5 0 -10 5 -10 10 0 7 25 10 68 8 63 -3 67 -5 71 -28z m219 0
c49 -46 39 -113 -21 -145 l-37 -20 -37 20 c-21 11 -42 32 -47 46 -20 59 22
119 84 119 23 0 44 -8 58 -20z m-815 -210 c11 0 17 -8 17 -25 0 -30 -11 -32
-28 -4 -8 12 -21 19 -34 17 -38 -5 -31 -27 15 -47 51 -22 64 -44 42 -77 -14
-21 -41 -31 -70 -24 -5 1 -20 2 -32 2 -19 0 -23 6 -23 32 l0 31 23 -28 c16
-21 30 -28 47 -25 36 5 31 30 -10 50 -43 22 -59 43 -53 67 6 23 41 42 68 36
11 -3 28 -5 38 -5z m193 -20 c0 -24 -11 -26 -20 -5 -3 8 -12 15 -21 15 -12 0
-15 -14 -15 -69 0 -46 4 -71 13 -74 6 -3 -10 -6 -38 -6 -39 0 -46 2 -32 10 24
14 25 139 1 139 -9 0 -23 -8 -30 -17 -12 -17 -13 -16 -14 5 0 21 4 22 78 22
71 0 78 -2 78 -20z m134 -55 c21 -53 33 -71 49 -73 20 -3 21 1 21 66 0 47 -4
72 -12 75 -7 3 15 6 49 6 34 1 68 -2 77 -5 21 -8 20 -43 0 -65 -16 -17 -14
-21 19 -54 l35 -35 -33 0 c-27 0 -37 6 -55 35 -12 19 -25 35 -29 35 -12 0 0
-54 13 -62 6 -4 -32 -8 -84 -8 -59 0 -90 4 -81 9 23 15 5 41 -28 41 -34 0 -48
-25 -23 -39 13 -8 9 -10 -22 -11 -34 0 -37 2 -24 13 9 6 29 43 44 80 18 46 31
67 41 65 9 -2 28 -34 43 -73z m390 55 c0 -23 -15 -27 -24 -5 -3 8 -12 15 -21
15 -24 0 -22 -125 3 -139 13 -8 4 -10 -38 -10 -30 1 -47 3 -37 6 14 4 17 16
17 74 0 55 -3 69 -15 69 -9 0 -18 -7 -21 -15 -9 -22 -24 -18 -24 5 0 18 7 20
80 20 73 0 80 -2 80 -20z"/>
<path d="M530 683 c0 -6 -3 -18 -6 -27 -4 -12 0 -16 15 -16 12 0 21 4 21 8 0
13 -29 48 -30 35z"/>
<path d="M800 455 c0 -33 2 -35 21 -25 24 14 22 53 -3 58 -15 3 -18 -4 -18
-33z"/>
<path d="M612 440 c-7 -19 -6 -26 5 -28 21 -5 25 2 14 29 l-9 24 -10 -25z"/>
</g>
</svg>
